<svg version="1.1" id="Layer_1" xmlns="http://www.w3.org/2000/svg" xmlns:xlink="http://www.w3.org/1999/xlink" x="0px" y="0px"
	 width="100%" viewBox="0 0 1024 1024" enable-background="new 0 0 1024 1024" xml:space="preserve">
<path fill="#000000" opacity="0" stroke="none" 
	d="
M1.000000,509.000000 
	C1.000000,339.333344 1.000000,170.166702 1.000000,1.000045 
	C342.333282,1.000030 683.666565,1.000030 1025.000000,1.000015 
	C1025.000000,342.333252 1025.000000,683.666504 1025.000000,1024.999756 
	C683.666809,1024.999878 342.333618,1024.999878 1.000214,1025.000000 
	C1.000000,853.166687 1.000000,681.333313 1.000000,509.000000 
M218.074799,853.533508 
	C218.383987,853.712830 218.693161,853.892090 219.000122,854.001770 
	C219.000122,854.001770 218.930649,854.006714 219.113205,854.589233 
	C219.738693,855.082214 220.364166,855.575134 220.996933,856.000610 
	C220.996933,856.000610 220.929031,855.999695 221.075470,856.533752 
	C221.383835,856.712830 221.692215,856.891968 221.999496,857.005493 
	C221.999496,857.005493 221.935257,857.018372 222.141251,857.597595 
	C222.719452,857.742004 223.297653,857.886353 224.203796,858.640930 
	C230.572052,863.780090 236.628036,869.378418 243.372009,873.965210 
	C258.600220,884.322388 274.005676,894.440918 289.636841,904.178528 
	C312.583923,918.473633 337.425262,928.862366 362.781219,937.960693 
	C387.192719,946.720215 412.200745,953.410522 437.927856,957.009033 
	C454.138550,959.276367 470.389801,962.281555 486.681061,962.702393 
	C510.675507,963.322083 534.781982,964.404907 558.739807,961.036011 
	C569.763428,959.485779 580.957581,958.917542 591.864868,956.816528 
	C617.916138,951.798645 643.628296,945.425903 668.547119,936.053101 
	C696.566162,925.514282 723.437317,912.740662 748.954407,897.046204 
	C782.319458,876.524780 812.344788,851.920349 839.600403,823.865173 
	C842.005493,821.389587 844.211853,818.713623 846.421631,816.056824 
	C855.651001,804.960205 865.485046,794.295105 873.896667,782.607605 
	C885.031555,767.136292 895.757446,751.271240 905.317017,734.796631 
	C913.223389,721.171204 919.182556,706.415894 926.650513,691.804016 
	C933.193909,673.327087 940.234680,655.008240 946.168457,636.337646 
	C955.997437,605.410706 961.222046,573.439636 962.663025,541.159302 
	C963.747009,516.876160 964.655823,492.372620 960.994873,468.103912 
	C958.417664,451.019470 956.120300,433.878052 952.960571,416.899323 
	C946.596802,382.704895 934.791931,350.215698 919.813171,318.961761 
	C912.512451,303.728333 903.723877,289.179840 895.151733,274.589813 
	C878.467224,246.192413 857.599487,220.992401 834.787231,197.367096 
	C829.155945,191.535141 823.192993,185.992310 817.079590,180.664062 
	C806.063843,171.062943 795.358093,160.975983 783.535400,152.463409 
	C768.387329,141.556519 752.393127,131.796616 736.528992,121.919106 
	C713.506653,107.584633 688.608093,97.144707 663.169617,88.036285 
	C638.818237,79.317131 613.823792,73.045074 588.252869,68.847916 
	C566.622437,65.297546 544.967957,62.796940 523.031250,62.988995 
	C515.199585,63.057560 507.358002,62.762642 499.536621,63.054180 
	C487.003296,63.521355 474.395111,63.636005 461.979675,65.188187 
	C446.812256,67.084396 431.769531,70.096344 416.746582,73.006210 
	C382.931763,79.555946 350.666565,90.953300 319.740845,105.893883 
	C304.235565,113.384644 289.360657,122.234612 274.469269,130.929886 
	C246.895569,147.030594 222.474747,167.296219 199.396683,189.207214 
	C192.674362,195.589584 186.327881,202.408264 180.214722,209.382507 
	C170.692856,220.245575 160.780273,230.883026 152.379166,242.582565 
	C141.491013,257.745605 131.696625,273.716217 121.842941,289.594574 
	C107.546211,312.632538 97.084839,337.514404 88.006874,362.969360 
	C79.317108,387.335815 72.533981,412.238708 68.986328,437.915405 
	C66.793228,453.788361 63.893665,469.671844 63.273312,485.626862 
	C62.480743,506.011139 63.127708,526.500000 64.177094,546.891174 
	C64.949921,561.908325 66.516754,576.996521 69.231194,591.777344 
	C74.009743,617.797668 80.621819,643.378784 89.870293,668.286133 
	C101.182999,698.752747 115.303123,727.771484 132.733536,755.145996 
	C152.672104,786.459534 176.303345,814.806580 203.083435,840.501160 
	C207.423660,844.665527 212.340744,848.228699 216.997589,852.001160 
	C216.997589,852.001160 216.928802,851.998413 217.074081,852.533691 
	C217.383408,852.712891 217.692734,852.892090 218.001892,852.998108 
	C218.001892,852.998108 217.928665,852.998047 218.074799,853.533508 
z"/>
<path fill="#FF8100" opacity="1.000000" stroke="none" 
	d="
M216.991196,852.069702 
	C212.340744,848.228699 207.423660,844.665527 203.083435,840.501160 
	C176.303345,814.806580 152.672104,786.459534 132.733536,755.145996 
	C115.303123,727.771484 101.182999,698.752747 89.870293,668.286133 
	C80.621819,643.378784 74.009743,617.797668 69.231194,591.777344 
	C66.516754,576.996521 64.949921,561.908325 64.177094,546.891174 
	C63.127708,526.500000 62.480743,506.011139 63.273312,485.626862 
	C63.893665,469.671844 66.793228,453.788361 68.986328,437.915405 
	C72.533981,412.238708 79.317108,387.335815 88.006874,362.969360 
	C97.084839,337.514404 107.546211,312.632538 121.842941,289.594574 
	C131.696625,273.716217 141.491013,257.745605 152.379166,242.582565 
	C160.780273,230.883026 170.692856,220.245575 180.214722,209.382507 
	C186.327881,202.408264 192.674362,195.589584 199.396683,189.207214 
	C222.474747,167.296219 246.895569,147.030594 274.469269,130.929886 
	C289.360657,122.234612 304.235565,113.384644 319.740845,105.893883 
	C350.666565,90.953300 382.931763,79.555946 416.746582,73.006210 
	C431.769531,70.096344 446.812256,67.084396 461.979675,65.188187 
	C474.395111,63.636005 487.003296,63.521355 499.536621,63.054180 
	C507.358002,62.762642 515.199585,63.057560 523.031250,62.988995 
	C544.967957,62.796940 566.622437,65.297546 588.252869,68.847916 
	C613.823792,73.045074 638.818237,79.317131 663.169617,88.036285 
	C688.608093,97.144707 713.506653,107.584633 736.528992,121.919106 
	C752.393127,131.796616 768.387329,141.556519 783.535400,152.463409 
	C795.358093,160.975983 806.063843,171.062943 817.079590,180.664062 
	C823.192993,185.992310 829.155945,191.535141 834.787231,197.367096 
	C857.599487,220.992401 878.467224,246.192413 895.151733,274.589813 
	C903.723877,289.179840 912.512451,303.728333 919.813171,318.961761 
	C934.791931,350.215698 946.596802,382.704895 952.960571,416.899323 
	C956.120300,433.878052 958.417664,451.019470 960.994873,468.103912 
	C964.655823,492.372620 963.747009,516.876160 962.663025,541.159302 
	C961.222046,573.439636 955.997437,605.410706 946.168457,636.337646 
	C940.234680,655.008240 933.193909,673.327087 926.124634,691.731201 
	C932.507141,669.911682 937.468201,647.680176 937.700439,624.867126 
	C937.853271,609.851990 936.821533,594.589539 934.155212,579.828918 
	C928.301331,547.421875 912.692261,520.016541 888.199707,497.619202 
	C888.624878,477.824066 889.594666,458.360779 888.917236,438.954987 
	C887.860107,408.673920 881.826538,379.115234 872.535950,350.311188 
	C847.006287,271.160370 800.580383,206.913437 733.049011,158.455292 
	C659.620789,105.765831 577.385681,83.056946 487.214386,88.878349 
	C453.422699,91.059914 420.619446,97.905609 388.725800,109.202057 
	C331.299835,129.541840 281.785431,161.932632 239.972748,206.282455 
	C208.881073,239.260757 184.501572,276.534668 166.972748,318.275421 
	C149.186707,360.628662 139.316025,404.766052 138.016586,450.735229 
	C137.408875,472.233826 138.027145,493.690826 141.080627,515.021667 
	C141.407318,517.303833 141.878098,519.565308 142.282028,521.836426 
	C143.832565,520.669128 144.304352,519.625000 144.737625,518.565186 
	C167.214386,463.582458 202.580368,418.403564 249.566956,382.412659 
	C310.598419,335.663513 380.059357,310.895355 456.522186,306.246796 
	C500.163940,303.593567 543.370056,307.679382 585.590393,319.881897 
	C669.640137,344.174042 737.667847,390.894012 786.636108,463.742310 
	C759.395569,464.205566 733.632202,469.721283 708.766602,479.441986 
	C660.879089,498.162720 621.026367,528.140381 587.796448,567.040405 
	C559.075256,600.662354 537.986267,638.538635 526.339172,681.382202 
	C518.996033,708.393555 515.666748,735.801208 519.186646,763.773743 
	C521.853210,784.964478 527.708862,805.158264 538.294556,823.822815 
	C540.962585,828.527039 543.913940,833.070557 547.437256,838.837158 
	C448.769257,845.833740 360.640076,820.889832 283.413910,760.773193 
	C206.223312,700.684265 160.079514,621.347229 142.106323,525.094666 
	C138.562012,534.597473 135.292816,543.995361 132.766113,553.588867 
	C126.520844,577.301025 122.458214,601.356201 122.563705,626.333618 
	C122.493340,629.451904 122.595566,632.227966 122.747101,635.469849 
	C122.488037,655.632874 125.219955,674.992065 129.458710,694.159546 
	C142.531281,753.273438 171.373505,803.747253 213.343277,847.020691 
	C214.773819,848.495544 215.784714,850.377502 216.991196,852.069702 
z"/>
<path fill="#FF0020" opacity="1.000000" stroke="none" 
	d="
M216.994385,852.035400 
	C215.784714,850.377502 214.773819,848.495544 213.343277,847.020691 
	C171.373505,803.747253 142.531281,753.273438 129.458710,694.159546 
	C125.219955,674.992065 122.488037,655.632874 122.809273,635.023315 
	C122.793526,631.404480 122.764908,628.697937 122.736282,625.991394 
	C122.458214,601.356201 126.520844,577.301025 132.766113,553.588867 
	C135.292816,543.995361 138.562012,534.597473 142.106323,525.094666 
	C160.079514,621.347229 206.223312,700.684265 283.413910,760.773193 
	C360.640076,820.889832 448.769257,845.833740 547.437256,838.837158 
	C543.913940,833.070557 540.962585,828.527039 538.294556,823.822815 
	C527.708862,805.158264 521.853210,784.964478 519.186646,763.773743 
	C515.666748,735.801208 518.996033,708.393555 526.339172,681.382202 
	C537.986267,638.538635 559.075256,600.662354 587.796448,567.040405 
	C621.026367,528.140381 660.879089,498.162720 708.766602,479.441986 
	C733.632202,469.721283 759.395569,464.205566 787.089294,463.802521 
	C792.936768,464.197449 797.861328,464.909149 802.789429,464.934357 
	C818.989990,465.017334 834.221375,469.579437 849.219604,474.947540 
	C863.586548,480.089691 876.147400,488.495270 888.005981,497.976837 
	C912.692261,520.016541 928.301331,547.421875 934.155212,579.828918 
	C936.821533,594.589539 937.853271,609.851990 937.700439,624.867126 
	C937.468201,647.680176 932.507141,669.911682 925.801636,691.909790 
	C919.182556,706.415894 913.223389,721.171204 905.317017,734.796631 
	C895.757446,751.271240 885.031555,767.136292 873.896667,782.607605 
	C865.485046,794.295105 855.651001,804.960205 846.421631,816.056824 
	C844.211853,818.713623 842.005493,821.389587 839.600403,823.865173 
	C812.344788,851.920349 782.319458,876.524780 748.954407,897.046204 
	C723.437317,912.740662 696.566162,925.514282 668.547119,936.053101 
	C643.628296,945.425903 617.916138,951.798645 591.864868,956.816528 
	C580.957581,958.917542 569.763428,959.485779 558.739807,961.036011 
	C534.781982,964.404907 510.675507,963.322083 486.681061,962.702393 
	C470.389801,962.281555 454.138550,959.276367 437.927856,957.009033 
	C412.200745,953.410522 387.192719,946.720215 362.781219,937.960693 
	C337.425262,928.862366 312.583923,918.473633 289.636841,904.178528 
	C274.005676,894.440918 258.600220,884.322388 243.372009,873.965210 
	C236.628036,869.378418 230.572052,863.780090 223.922958,858.037842 
	C223.073166,857.295898 222.504211,857.157104 221.935257,857.018372 
	C221.935257,857.018372 221.999496,857.005493 221.992676,856.728210 
	C221.633591,856.300476 221.281311,856.150085 220.929031,855.999695 
	C220.929031,855.999695 220.996933,856.000610 221.058914,855.679443 
	C220.390808,854.907837 219.660721,854.457275 218.930634,854.006714 
	C218.930649,854.006714 219.000122,854.001770 218.984238,853.731750 
	C218.621796,853.307190 218.275223,853.152588 217.928665,852.998047 
	C217.928665,852.998047 218.001892,852.998108 217.985443,852.729858 
	C217.622269,852.307190 217.275528,852.152832 216.928802,851.998413 
	C216.928802,851.998413 216.997589,852.001160 216.994385,852.035400 
z"/>
<path fill="#FF8100" opacity="1.000000" stroke="none" 
	d="
M219.021912,854.297974 
	C219.660721,854.457275 220.390808,854.907837 221.055267,855.713257 
	C220.364166,855.575134 219.738693,855.082214 219.021912,854.297974 
z"/>
<path fill="#FF8100" opacity="1.000000" stroke="none" 
	d="
M222.038254,857.307983 
	C222.504211,857.157104 223.073166,857.295898 223.758987,857.732666 
	C223.297653,857.886353 222.719452,857.742004 222.038254,857.307983 
z"/>
<path fill="#FF8100" opacity="1.000000" stroke="none" 
	d="
M217.001434,852.266052 
	C217.275528,852.152832 217.622269,852.307190 217.985535,852.766479 
	C217.692734,852.892090 217.383408,852.712891 217.001434,852.266052 
z"/>
<path fill="#FF8100" opacity="1.000000" stroke="none" 
	d="
M218.001740,853.265747 
	C218.275223,853.152588 218.621796,853.307190 218.985352,853.766602 
	C218.693161,853.892090 218.383987,853.712830 218.001740,853.265747 
z"/>
<path fill="#FF8100" opacity="1.000000" stroke="none" 
	d="
M221.002258,856.266724 
	C221.281311,856.150085 221.633591,856.300476 221.993225,856.760986 
	C221.692215,856.891968 221.383835,856.712830 221.002258,856.266724 
z"/>
<path fill="#FFCF00" opacity="1.000000" stroke="none" 
	d="
M888.199707,497.619202 
	C876.147400,488.495270 863.586548,480.089691 849.219604,474.947540 
	C834.221375,469.579437 818.989990,465.017334 802.789429,464.934357 
	C797.861328,464.909149 792.936768,464.197449 787.557373,463.739990 
	C737.667847,390.894012 669.640137,344.174042 585.590393,319.881897 
	C543.370056,307.679382 500.163940,303.593567 456.522186,306.246796 
	C380.059357,310.895355 310.598419,335.663513 249.566956,382.412659 
	C202.580368,418.403564 167.214386,463.582458 144.737625,518.565186 
	C144.304352,519.625000 143.832565,520.669128 142.282028,521.836426 
	C141.878098,519.565308 141.407318,517.303833 141.080627,515.021667 
	C138.027145,493.690826 137.408875,472.233826 138.016586,450.735229 
	C139.316025,404.766052 149.186707,360.628662 166.972748,318.275421 
	C184.501572,276.534668 208.881073,239.260757 239.972748,206.282455 
	C281.785431,161.932632 331.299835,129.541840 388.725800,109.202057 
	C420.619446,97.905609 453.422699,91.059914 487.214386,88.878349 
	C577.385681,83.056946 659.620789,105.765831 733.049011,158.455292 
	C800.580383,206.913437 847.006287,271.160370 872.535950,350.311188 
	C881.826538,379.115234 887.860107,408.673920 888.917236,438.954987 
	C889.594666,458.360779 888.624878,477.824066 888.199707,497.619202 
z"/>
<path fill="#FF5501" opacity="1.000000" stroke="none" 
	d="
M122.563705,626.333618 
	C122.764908,628.697937 122.793526,631.404480 122.759964,634.557556 
	C122.595566,632.227966 122.493340,629.451904 122.563705,626.333618 
z"/>
</svg>